<svg id="Layer_1" data-name="Layer 1" xmlns="http://www.w3.org/2000/svg" viewBox="0 0 16.68 34.99">
  <title>baby-2-icon</title>
  <path class="taxi-age" d="M8.34,10A5,5,0,0,1,3.41,5a4.92,4.92,0,1,1,9.85,0A5,5,0,0,1,8.34,10Z" transform="translate(0.01)"/>
  <path class="taxi-age" d="M0,22.86c.7-9.45,5.56-11.56,6.85-12a4.21,4.21,0,0,1,1.48-.27,4.07,4.07,0,0,1,1.47.27c1.29.4,6.15,2.51,6.86,12a1.57,1.57,0,0,1-1.44,1.69h-.12a1.57,1.57,0,0,1-1.56-1.47,17.71,17.71,0,0,0-1-5.08v3.52a4.36,4.36,0,0,1-.11,1V33.14a1.83,1.83,0,1,1-3.65,0V25.73l-.41,0-.41,0v7.41a1.82,1.82,0,1,1-3.65,0V22.51a4.38,4.38,0,0,1-.11-1V18a17.56,17.56,0,0,0-1,5.06,1.57,1.57,0,0,1-1.56,1.47H1.44A1.57,1.57,0,0,1,0,22.88Z" transform="translate(0.01)"/>
</svg>
