<svg id="Layer_1" data-name="Layer 1" xmlns="http://www.w3.org/2000/svg" viewBox="0 0 20.01 30.4">

  <title>baby-icon</title>
  <path class="taxi-age" d="M.56,13.54a.62.62,0,0,1,.67,0c1.6,1.18,2.88,2.07,3.69,2.57C6.33,17,8.46,18.07,10,18.81a.62.62,0,0,1,.35.5.61.61,0,0,1-.22.56c-2.77,2.28-5.93,4.45-7.57,5.54a.64.64,0,0,1-.35.1l-.16,0a.63.63,0,0,1-.4-.33,9.57,9.57,0,0,1-.89-2.81l-.12-.78L.23,14.13a.65.65,0,0,1,.33-.6Z"/>
  <path class="taxi-age" d="M3.3,26.43a89,89,0,0,0,9.38-7.09,59.18,59.18,0,0,0,6.1-6.5.62.62,0,0,1,.71-.19.64.64,0,0,1,.4.63l-.46,8.35-.11.72a9.35,9.35,0,0,1-16.13,5A.64.64,0,0,1,3,26.88a.63.63,0,0,1,.28-.46Z"/>
  <path class="taxi-age" d="M10,0A10,10,0,0,1,20,9c0,.23,0,.38-.18.51l-.31.4A69.83,69.83,0,0,1,12.23,18a.62.62,0,0,1-.69.11c-1.21-.57-4.21-2-6-3.09-1.5-.91-4.18-2.93-5.27-3.76A.63.63,0,0,1,0,10.83l0-.7A10.1,10.1,0,0,1,10,0Zm-6,10.06a6.18,6.18,0,0,0,6,5.15,6.18,6.18,0,0,0,6-5.15,1.82,1.82,0,0,0,.92-1.6,1.84,1.84,0,0,0-1.16-1.71,6.23,6.23,0,0,0-4.26-4,5,5,0,0,1,.28.63,2.13,2.13,0,0,1-.11,1.69,2.35,2.35,0,0,1-1.44,1.2,2,2,0,0,1-.53.08,1.88,1.88,0,0,1-.94-.25,1.91,1.91,0,0,1-.93-1.18A1.7,1.7,0,0,1,9,2.82a.62.62,0,0,1,.77.44A.63.63,0,0,1,9.34,4,.43.43,0,0,0,9,4.57.68.68,0,0,0,9.37,5,.66.66,0,0,0,9.89,5a1.09,1.09,0,0,0,.66-.55.84.84,0,0,0,.05-.67,2.39,2.39,0,0,0-.93-1.25A6.16,6.16,0,0,0,4.29,6.76,1.84,1.84,0,0,0,4,10.07Z"/>
  <path class="taxi-age" d="M12.54,9.5a.64.64,0,1,1,.63-.63.63.63,0,0,1-.63.63Z"/>
  <path class="taxi-age" d="M7.53,9.5a.64.64,0,1,1,.63-.63.63.63,0,0,1-.63.63Z"/>
  <path class="taxi-age" d="M11.29,11.77c0,.5-.56.9-1.25.9s-1.25-.4-1.25-.9S11.29,11.28,11.29,11.77Z"/>
</svg>
