<svg id="Layer_1" data-name="Layer 1" xmlns="http://www.w3.org/2000/svg" viewBox="0 0 18 40">
  <title>child-icon</title>
  <path class="taxi-age" d="M8.57,10.21a5.11,5.11,0,1,1,5.06-5.11A5.08,5.08,0,0,1,8.57,10.21Z"/>
  <path class="taxi-age" d="M7,11.17a4.24,4.24,0,0,1,3,0c1.33.4,6.32,2.57,7,12.25a1.61,1.61,0,0,1-1.48,1.74h-.12a1.61,1.61,0,0,1-1.6-1.5,18,18,0,0,0-1.07-5.2v5a4.44,4.44,0,0,1-.11,1V38.11a1.87,1.87,0,1,1-3.75,0V27.75l-.42,0-.42,0V38.11a1.88,1.88,0,1,1-3.75,0V24.44a4.41,4.41,0,0,1-.11-1v-5a18,18,0,0,0-1.07,5.2,1.61,1.61,0,0,1-1.6,1.5H1.48A1.61,1.61,0,0,1,0,23.43C.72,13.74,5.72,11.58,7,11.17Z"/>
</svg>
