<svg id="Layer_1" data-name="Layer 1" xmlns="http://www.w3.org/2000/svg" viewBox="0 0 46 46">
  <defs>
    <style>
      .cls-1 {
        fill: #333;
      }
    </style>
  </defs>
  <title>fb-icon</title>
  <path id="a" class="taxi-fb" d="M37.38,0H8.63A8.62,8.62,0,0,0,0,8.63V37.38A8.62,8.62,0,0,0,8.63,46H37.38A8.62,8.62,0,0,0,46,37.38V8.63A8.62,8.62,0,0,0,37.38,0ZM36.21,24.77H31.9V40.7H24.71V24.77H21.92V19.41h2.79V16c0-4.48,1.86-7.14,7.14-7.14h5.35v5.35H34.1c-2.06,0-2.19.77-2.19,2.2v3h4.89l-.58,5.37Z"/>
</svg>
