<svg id="Layer_1" data-name="Layer 1" xmlns="http://www.w3.org/2000/svg" viewBox="0 0 46 46">
  <defs>
    <style>
      .cls-1 {
        fill: #333;
      }
    </style>
  </defs>
  <title>inst-icon</title>
  <path id="a" class="taxi-inst" d="M27.07,20a5,5,0,0,0-8.17,0A5.2,5.2,0,0,0,18,23,5,5,0,1,0,28,23,5.2,5.2,0,0,0,27.07,20Z"/>
  <path id="b" class="taxi-inst" d="M30.24,20.08A7.19,7.19,0,0,1,30.83,23a7.84,7.84,0,1,1-15.69,0,7.07,7.07,0,0,1,.58-2.92H11.31V31.8a3,3,0,0,0,2.88,2.88H31.78a3,3,0,0,0,2.88-2.88V20.08H30.24Z"/>
  <path id="c" class="taxi-inst" d="M33.34,12H29.11v4.86h4.82V11.94Z"/>
  <path id="d" class="taxi-inst" d="M34.44,0H11.53A11.56,11.56,0,0,0,0,11.54v23A11.55,11.55,0,0,0,11.53,46H34.47A11.56,11.56,0,0,0,46,34.46V11.54A11.61,11.61,0,0,0,34.44,0Zm2.77,20V31.8a5.36,5.36,0,0,1-5.44,5.44H14.19A5.36,5.36,0,0,1,8.75,31.8V14.2a5.36,5.36,0,0,1,5.43-5.44H31.77a5.36,5.36,0,0,1,5.44,5.44Z"/>
</svg>
