<svg id="Layer_1" data-name="Layer 1" xmlns="http://www.w3.org/2000/svg" viewBox="0 0 20 45">
  <title>teen-icon</title>
  <path class="taxi-age" d="M9.6,11.49A5.71,5.71,0,0,1,3.92,5.74a5.67,5.67,0,1,1,11.35,0A5.71,5.71,0,0,1,9.6,11.49Z"/>
  <path class="taxi-age" d="M7.9,12.57a4.75,4.75,0,0,1,3.4,0c1.48.46,7.08,2.89,7.89,13.79a1.82,1.82,0,0,1-1.66,2H17.4a1.81,1.81,0,0,1-1.79-1.69,20.31,20.31,0,0,0-1.21-5.85v5.61a5,5,0,0,1-.13,1.11V42.87a2.1,2.1,0,1,1-4.2,0V31.22l-.47,0-.47,0V42.87a2.1,2.1,0,1,1-4.2,0V27.49a4.94,4.94,0,0,1-.13-1.11V20.77a20.29,20.29,0,0,0-1.21,5.85A1.81,1.81,0,0,1,1.8,28.31H1.66a1.82,1.82,0,0,1-1.66-2C.81,15.45,6.42,13,7.9,12.57Z"/>
</svg>
