<svg id="Layer_1" data-name="Layer 1" xmlns="http://www.w3.org/2000/svg" viewBox="0 0 46 46">
  <defs>
    <style>
      .cls-1 {
        fill: #333;
      }
    </style>
  </defs>
  <title>vk-icon</title>
  <path id="a" class="taxi-vk" d="M25.48,25.35a5.33,5.33,0,0,0-2.6-.43H20.15v5.64h2.51a5.17,5.17,0,0,0,2.92-.5,2.93,2.93,0,0,0,1.15-2.39,2.88,2.88,0,0,0-1.25-2.32Zm-1-4.81a2.63,2.63,0,0,0,.93-2,2.37,2.37,0,0,0-1.09-2,6.72,6.72,0,0,0-2.95-.33H20.15v5h1.58a4.38,4.38,0,0,0,2.72-.53ZM37.91,0H8.08A8.09,8.09,0,0,0,0,8.09V37.91A8.09,8.09,0,0,0,8.09,46H37.92A8.09,8.09,0,0,0,46,37.91V8.09A8.09,8.09,0,0,0,37.91,0ZM24.25,34.76h-9.4V12.08H25.12c3,0,5.72,1.89,5.72,5.23a4.83,4.83,0,0,1-3.27,4.89v.07c2.73.56,4.67,2,4.67,5.61,0,3.3-2.25,6.88-8,6.88Z"/>
</svg>
